<?xml version="1.0" standalone="no"?>
<!DOCTYPE svg PUBLIC "-//W3C//DTD SVG 20010904//EN"
 "http://www.w3.org/TR/2001/REC-SVG-20010904/DTD/svg10.dtd">
<svg version="1.0" xmlns="http://www.w3.org/2000/svg"
 width="278.000000pt" height="282.000000pt" viewBox="0 0 278.000000 282.000000"
 preserveAspectRatio="xMidYMid meet">

<g transform="translate(0.000000,282.000000) scale(0.100000,-0.100000)"
fill="#000000" stroke="none">
<path d="M740 2552 c0 -4 78 -85 173 -179 l172 -172 230 -3 c222 -3 232 -4
280 -28 62 -31 126 -95 157 -157 19 -40 23 -64 23 -143 0 -80 -4 -103 -24
-143 -33 -68 -96 -130 -159 -157 -15 -6 -20 -14 -15 -22 4 -7 49 -75 100 -150
l94 -137 52 32 c29 17 85 65 125 105 199 203 247 505 122 767 -94 198 -269
333 -492 379 -62 13 -150 16 -458 16 -209 0 -380 -3 -380 -8z m882 -185 c256
-99 397 -340 348 -598 -14 -74 -69 -185 -118 -239 -34 -38 -41 -42 -47 -28 -5
12 3 29 24 53 37 43 84 134 101 194 14 54 14 188 -1 243 -32 119 -111 227
-214 293 -102 65 -121 69 -340 72 -223 4 -245 6 -245 29 0 15 22 16 213 12
198 -5 216 -7 279 -31z"/>
<path d="M614 2524 c3 -9 6 -345 6 -747 l0 -732 220 -225 220 -225 0 760 0
760 -213 213 c-193 193 -250 241 -233 196z m236 -493 c11 -21 15 -887 4 -915
-5 -13 -9 -14 -20 -5 -12 9 -14 93 -14 475 0 291 4 464 10 464 5 0 14 -9 20
-19z"/>
<path d="M1300 1564 l0 -59 146 -215 c80 -118 197 -291 260 -385 388 -573 355
-528 412 -558 29 -16 55 -27 58 -24 2 2 -38 67 -90 143 -52 76 -151 222 -220
324 -203 302 -555 820 -562 829 -2 2 -4 -22 -4 -55z"/>
<path d="M1450 1561 l0 -62 184 -272 c101 -150 234 -346 296 -437 61 -91 166
-246 233 -345 111 -164 127 -183 175 -208 29 -16 56 -27 61 -25 9 3 -61 108
-535 808 -133 195 -276 407 -319 470 -43 63 -82 119 -86 125 -5 5 -9 -18 -9
-54z"/>
<path d="M1140 1465 l0 -145 73 -107 c40 -60 153 -226 251 -371 l178 -263 150
-75 c83 -41 152 -73 155 -71 4 4 -135 212 -508 762 -94 138 -195 287 -225 333
-31 45 -60 82 -65 82 -5 0 -9 -65 -9 -145z"/>
</g>
</svg>
